<svg width="113" height="97" viewBox="0 0 113 97" fill="none" xmlns="http://www.w3.org/2000/svg">
<path d="M62.2969 2L62.1162 4.16602L61.8232 7.68262V12.7402H72.6826V22.9736L70.5166 22.793L66.999 22.5H61.8232V27.6758L62.1162 31.1943L62.2549 32.8604H64V72.8604H66V44.8604C66 38.2329 71.3726 32.8604 78 32.8604H80V72.8604H82V44.8604C82 38.2329 87.3726 32.8604 94 32.8604H96V72.8604H97V44.8604C97 38.2329 102.373 32.8604 109 32.8604H111V82.6621C111 90.2346 104.072 95.9138 96.6465 94.4287L58.8027 86.8604H54.1973L16.3535 94.4287C8.92806 95.9138 2.00009 90.2346 2 82.6621V44.8604C2 38.2329 7.37258 32.8604 14 32.8604H16V72.8604H18V44.8604C18 38.2329 23.3726 32.8604 30 32.8604H32V72.8604H34V44.8604C34 38.2329 39.3726 32.8604 46 32.8604H48V72.8604H50V44.8604C50 39.4254 53.614 34.8365 58.5693 33.3604H51.5898L51.7695 31.1943L52.0635 27.6748V22.5H47.0068L43.4893 22.793L41.3232 22.9736V12.7402H52.0635V7.68359L51.7695 4.16602L51.5898 2H62.2969Z" fill="#375486" stroke="white" stroke-width="4"/>
</svg>
