<svg width="140" height="140" viewBox="0 0 140 140" fill="none" xmlns="http://www.w3.org/2000/svg">
<rect width="140" height="140" rx="70" fill="white"/>
<path d="M17.5 96.5274H122.5V104.329C122.5 110.64 116.727 115.373 110.539 114.135L70 106.027L29.4612 114.135C23.2732 115.373 17.5 110.64 17.5 104.329V96.5274Z" fill="url(#paint0_linear_19_51)"/>
<path d="M27.5 106.527C21.9772 106.527 17.5 102.05 17.5 96.5274V66.5274C17.5 61.0045 21.9772 56.5274 27.5 56.5274V106.527Z" fill="url(#paint1_linear_19_51)"/>
<path d="M112.5 106.527V66.5274C112.5 61.0045 116.977 56.5274 122.5 56.5274V96.5274C122.5 102.05 118.023 106.527 112.5 106.527Z" fill="url(#paint2_linear_19_51)"/>
<path d="M97.5 106.527V66.5274C97.5 61.0045 101.977 56.5274 107.5 56.5274V106.527H97.5Z" fill="url(#paint3_linear_19_51)"/>
<path d="M81.5 106.527V66.5274C81.5 61.0045 85.9772 56.5274 91.5 56.5274V106.527H81.5Z" fill="url(#paint4_linear_19_51)"/>
<path d="M65.5 106.527V66.5274C65.5 61.0045 69.9772 56.5274 75.5 56.5274V106.527H65.5Z" fill="url(#paint5_linear_19_51)"/>
<path d="M49.5 106.527V66.5274C49.5 61.0045 53.9772 56.5274 59.5 56.5274V106.527H49.5Z" fill="url(#paint6_linear_19_51)"/>
<path d="M33.5 106.527V66.5274C33.5 61.0045 37.9772 56.5274 43.5 56.5274V106.527H33.5Z" fill="url(#paint7_linear_19_51)"/>
<path d="M56.823 42.4674V36.4074H84.1831V42.4674L80.583 42.1674H60.423L56.823 42.4674ZM73.623 53.0274H67.263L67.563 49.4274V29.2674L67.263 25.6674H73.623L73.323 29.2674V49.4274L73.623 53.0274Z" fill="url(#paint8_linear_19_51)"/>
<defs>
<linearGradient id="paint0_linear_19_51" x1="70" y1="25.6674" x2="70" y2="114.333" gradientUnits="userSpaceOnUse">
<stop stop-color="#B8B781"/>
<stop offset="1" stop-color="#375486"/>
</linearGradient>
<linearGradient id="paint1_linear_19_51" x1="70" y1="25.6674" x2="70" y2="114.333" gradientUnits="userSpaceOnUse">
<stop stop-color="#B8B781"/>
<stop offset="1" stop-color="#375486"/>
</linearGradient>
<linearGradient id="paint2_linear_19_51" x1="70" y1="25.6674" x2="70" y2="114.333" gradientUnits="userSpaceOnUse">
<stop stop-color="#B8B781"/>
<stop offset="1" stop-color="#375486"/>
</linearGradient>
<linearGradient id="paint3_linear_19_51" x1="70" y1="25.6674" x2="70" y2="114.333" gradientUnits="userSpaceOnUse">
<stop stop-color="#B8B781"/>
<stop offset="1" stop-color="#375486"/>
</linearGradient>
<linearGradient id="paint4_linear_19_51" x1="70" y1="25.6674" x2="70" y2="114.333" gradientUnits="userSpaceOnUse">
<stop stop-color="#B8B781"/>
<stop offset="1" stop-color="#375486"/>
</linearGradient>
<linearGradient id="paint5_linear_19_51" x1="70" y1="25.6674" x2="70" y2="114.333" gradientUnits="userSpaceOnUse">
<stop stop-color="#B8B781"/>
<stop offset="1" stop-color="#375486"/>
</linearGradient>
<linearGradient id="paint6_linear_19_51" x1="70" y1="25.6674" x2="70" y2="114.333" gradientUnits="userSpaceOnUse">
<stop stop-color="#B8B781"/>
<stop offset="1" stop-color="#375486"/>
</linearGradient>
<linearGradient id="paint7_linear_19_51" x1="70" y1="25.6674" x2="70" y2="114.333" gradientUnits="userSpaceOnUse">
<stop stop-color="#B8B781"/>
<stop offset="1" stop-color="#375486"/>
</linearGradient>
<linearGradient id="paint8_linear_19_51" x1="70" y1="25.6674" x2="70" y2="114.333" gradientUnits="userSpaceOnUse">
<stop stop-color="#B8B781"/>
<stop offset="1" stop-color="#375486"/>
</linearGradient>
</defs>
</svg>
