<svg xmlns="http://www.w3.org/2000/svg" width="210" height="210" fill="none" xmlns:v="https://vecta.io/nano"><path d="M105 2.5c56.609 0 102.5 45.891 102.5 102.5S161.609 207.5 105 207.5 2.5 161.609 2.5 105 48.391 2.5 105 2.5z" fill="#fff" stroke="#375486" stroke-width="5"/><path d="M109.578 108h15.26v10h-15.26v24.645c16.053-2.243 28.584-14.937 30.382-30.726a4.99 4.99 0 0 1-1.897-3.919v-5h14.244v5c0 1.776-.928 3.335-2.324 4.222-2.006 21.275-19.023 38.161-40.405 40.498v10.055c27.294-2.407 48.851-23.991 50.808-50.795a4.99 4.99 0 0 1-1.976-3.98v-5h14.243v5c0 1.748-.897 3.285-2.256 4.179-2.082 32.356-28.185 58.179-60.819 60.63v10.086c38.816-1.999 69.847-32.412 72.176-70.314a5 5 0 0 1-2.997-4.581v-5H193v5a4.98 4.98 0 0 1-1.166 3.208C190.119 156.74 152.05 193 105.509 193c-.275 0-.55-.003-.824-.006-.065.003-.129.006-.194.006-.106 0-.211-.005-.315-.012-45.61-.68-82.768-36.178-84.952-80.829C17.883 111.262 17 109.734 17 108v-5h14.243v5c0 1.642-.792 3.098-2.014 4.01 2.015 37.501 32.121 67.802 70.175 70.753v-9.954c-32.634-2.45-58.738-28.274-60.82-60.63-1.358-.894-2.255-2.432-2.255-4.179v-5h14.243v5a4.99 4.99 0 0 1-1.977 3.98c1.956 26.804 23.515 48.389 50.809 50.795V152.72c-21.382-2.337-38.4-19.222-40.406-40.498-1.395-.887-2.321-2.446-2.321-4.222v-5h14.242v5a4.99 4.99 0 0 1-1.897 3.919c1.798 15.789 14.329 28.483 30.383 30.726V118h-15.26v-10h15.26V93h10.174v15z" fill="#375486"/></svg>