<svg xmlns="http://www.w3.org/2000/svg" width="176" height="140" fill="#375486" xmlns:v="https://vecta.io/nano"><path d="M92.578 15h15.26v10h-15.26v24.645c16.053-2.242 28.584-14.936 30.382-30.726A4.99 4.99 0 0 1 121.063 15v-5h14.244v5c0 1.776-.928 3.335-2.324 4.222-2.006 21.276-19.023 38.162-40.405 40.498v10.056c27.294-2.407 48.851-23.991 50.808-50.795A4.99 4.99 0 0 1 141.41 15v-5h14.243v5c0 1.748-.897 3.285-2.256 4.179-2.082 32.356-28.185 58.18-60.819 60.63v10.086c38.816-1.998 69.847-32.411 72.176-70.313A5 5 0 0 1 161.757 15v-5H176v5a4.98 4.98 0 0 1-1.166 3.208C173.119 63.74 135.05 100 88.509 100c-.275 0-.55-.003-.824-.006-.064.002-.129.006-.193.006a5.14 5.14 0 0 1-.315-.012C41.566 99.308 4.408 63.81 2.224 19.159.883 18.262 0 16.734 0 15v-5h14.243v5c0 1.642-.792 3.098-2.014 4.01 2.015 37.501 32.121 67.802 70.175 70.753v-9.954c-32.634-2.45-58.738-28.274-60.82-60.63-1.358-.894-2.255-2.431-2.255-4.179v-5h14.243v5a4.99 4.99 0 0 1-1.977 3.98c1.956 26.804 23.515 48.388 50.809 50.795V59.72c-21.382-2.337-38.4-19.222-40.406-40.498-1.395-.887-2.321-2.446-2.321-4.222v-5h14.242v5a4.99 4.99 0 0 1-1.897 3.919c1.798 15.789 14.329 28.484 30.383 30.726V25h-15.26V15h15.26V0h10.174v15zM2.267 132v-22.5h5.43c2.68 0 4.78.97 6.3 2.91 1.54 1.92 2.31 4.7 2.31 8.34 0 3.62-.77 6.4-2.31 8.34-1.52 1.94-3.62 2.91-6.3 2.91h-5.43zm4.41-3.66h1.02c1.24 0 2.22-.59 2.94-1.77.74-1.18 1.11-3.12 1.11-5.82s-.37-4.64-1.11-5.82c-.72-1.18-1.7-1.77-2.94-1.77h-1.02v15.18zm24.681 4.08l-.96-4.53h-4.83l-.69 4.11h-4.35l4.59-22.23 5.43-.63 5.22 22.86-4.41.42zm-3.54-18.51l-.24 1.47-1.65 8.85h3.9l-1.74-8.88-.27-1.44zM41.021 132v-22.5h4.41V132h-4.41zm10.998 0v-22.5h4.38v18.81h7.29l-.45 3.69h-11.22zm18.344 0v-7.44l-4.98-14.73 4.38-.66 2.85 9.66.21.87.18-.87 2.91-9.33h3.84l-4.98 14.52V132h-4.41zm14.433 0v-22.5h5.52c2.34 0 4.17.49 5.49 1.47s1.98 2.45 1.98 4.41c0 2.56-.95 4.28-2.85 5.16 1.14.42 1.98 1.07 2.52 1.95.56.86.84 2 .84 3.42 0 1.94-.67 3.44-2.01 4.5s-3.31 1.59-5.91 1.59h-5.58zm4.41-13.02h1.44c.9 0 1.61-.28 2.13-.84.54-.58.81-1.35.81-2.31 0-1.9-1.09-2.85-3.27-2.85h-1.11v6zm0 9.54h1.17c2.38 0 3.57-1.06 3.57-3.18 0-1.04-.29-1.8-.87-2.28-.56-.48-1.46-.72-2.7-.72h-1.17v6.18zm24.963 3.96l-3.84-9.06h-1.98V132h-4.41v-22.5h5.64c2.44 0 4.34.56 5.7 1.68 1.36 1.1 2.04 2.85 2.04 5.25 0 1.28-.27 2.41-.81 3.39-.52.98-1.28 1.77-2.28 2.37l3.99 8.82-4.05 1.47zm-5.82-12.57h1.02c.96 0 1.78-.28 2.46-.84.7-.56 1.05-1.43 1.05-2.61 0-1.3-.32-2.2-.96-2.7s-1.49-.75-2.55-.75h-1.02v6.9zM123.462 132v-22.5h11.94l-.45 3.66h-7.08v5.46h5.7l-.45 3.6h-5.25v6.12h7.68l-.42 3.66h-11.67zm27.275.42l-.96-4.53h-4.83l-.69 4.11h-4.35l4.59-22.23 5.43-.63 5.22 22.86-4.41.42zm-3.54-18.51l-.24 1.47-1.65 8.85h3.9l-1.74-8.88-.27-1.44zM160.4 132v-22.5h5.43c2.68 0 4.78.97 6.3 2.91 1.54 1.92 2.31 4.7 2.31 8.34 0 3.62-.77 6.4-2.31 8.34-1.52 1.94-3.62 2.91-6.3 2.91h-5.43zm4.41-3.66h1.02c1.24 0 2.22-.59 2.94-1.77.74-1.18 1.11-3.12 1.11-5.82s-.37-4.64-1.11-5.82c-.72-1.18-1.7-1.77-2.94-1.77h-1.02v15.18z"/></svg>