<svg width="105" height="113" viewBox="0 0 105 113" fill="none" xmlns="http://www.w3.org/2000/svg">
<path d="M0 70.86H105V78.662C105 84.9724 99.2268 89.7053 93.0388 88.4678L52.5 80.36L11.9612 88.4678C5.77325 89.7053 0 84.9724 0 78.662V70.86Z" fill="url(#paint0_linear_19_54)"/>
<path d="M10 80.86C4.47715 80.86 0 76.3828 0 70.86V40.86C0 35.3372 4.47715 30.86 10 30.86V80.86Z" fill="url(#paint1_linear_19_54)"/>
<path d="M95 80.86V40.86C95 35.3372 99.4772 30.86 105 30.86V70.86C105 76.3828 100.523 80.86 95 80.86Z" fill="url(#paint2_linear_19_54)"/>
<path d="M80 80.86V40.86C80 35.3372 84.4772 30.86 90 30.86V80.86H80Z" fill="url(#paint3_linear_19_54)"/>
<path d="M64 80.86V40.86C64 35.3372 68.4772 30.86 74 30.86V80.86H64Z" fill="url(#paint4_linear_19_54)"/>
<path d="M48 80.86V40.86C48 35.3372 52.4772 30.86 58 30.86V80.86H48Z" fill="url(#paint5_linear_19_54)"/>
<path d="M32 80.86V40.86C32 35.3372 36.4772 30.86 42 30.86V80.86H32Z" fill="url(#paint6_linear_19_54)"/>
<path d="M16 80.86V40.86C16 35.3372 20.4772 30.86 26 30.86V80.86H16Z" fill="url(#paint7_linear_19_54)"/>
<path d="M39.323 16.8V10.74H66.6831V16.8L63.083 16.5H42.923L39.323 16.8ZM56.123 27.36H49.763L50.063 23.76V3.6L49.763 0H56.123L55.823 3.6V23.76L56.123 27.36Z" fill="url(#paint8_linear_19_54)"/>
<path d="M1.35869 107.665L1.53869 106.225V96.5054L1.35869 95.0654H5.89469C6.25469 95.0654 6.65069 95.0954 7.08269 95.1554C7.51469 95.2034 7.9527 95.2994 8.3967 95.4434C8.8527 95.5874 9.2847 95.8094 9.6927 96.1094C10.1007 96.3974 10.4667 96.7754 10.7907 97.2434C11.1147 97.7114 11.3727 98.2934 11.5647 98.9894C11.7567 99.6734 11.8527 100.495 11.8527 101.455C11.8527 102.559 11.7267 103.483 11.4747 104.227C11.2347 104.971 10.9047 105.571 10.4847 106.027C10.0647 106.483 9.59069 106.831 9.06269 107.071C8.54669 107.299 8.01269 107.455 7.46069 107.539C6.92069 107.623 6.39869 107.665 5.89469 107.665H1.35869ZM4.02269 105.541H5.28269C5.8587 105.541 6.3867 105.511 6.86669 105.451C7.34669 105.379 7.76669 105.217 8.12669 104.965C8.48669 104.701 8.76269 104.293 8.95469 103.741C9.1467 103.189 9.2427 102.421 9.2427 101.437C9.2427 100.369 9.1287 99.5474 8.9007 98.9714C8.68469 98.3834 8.38469 97.9694 8.00069 97.7294C7.62869 97.4774 7.20269 97.3274 6.72269 97.2794C6.25469 97.2194 5.7747 97.1894 5.28269 97.1894H4.02269V105.541ZM11.7001 107.665L16.0921 95.0654H19.3681L23.7601 107.665H20.9701L20.6101 106.225L18.0001 98.0174L17.8201 96.9014H17.6401L17.4601 98.0174L14.8501 106.225L14.4901 107.665H11.7001ZM14.0401 104.785V102.625H21.4201V104.785H14.0401ZM26.0291 107.665V95.0654H28.5131V107.665H26.0291ZM24.4451 107.665V105.361L25.5251 105.541H29.0171L30.0971 105.361V107.665H24.4451ZM24.4451 97.3694V95.0654H30.0971V97.3694L29.0171 97.1894H25.5251L24.4451 97.3694ZM31.6177 107.665L31.7977 106.225V96.5054L31.6177 95.0654H34.4617L34.2817 96.5054V105.541H38.7457L39.8257 105.361V107.665H31.6177ZM42.1411 107.665L42.3211 106.225V102.625L38.0551 95.0654H40.9351L41.3671 96.1094L43.2571 99.7634L43.4551 100.951H43.6351L43.8331 99.7634L45.6871 96.1094L46.1191 95.0654H48.9991L44.8051 102.625V106.225L44.9851 107.665H42.1411ZM49.681 107.665L49.861 106.225V96.5054L49.681 95.0654H55.009C56.221 95.0654 57.181 95.3414 57.889 95.8934C58.609 96.4334 58.969 97.2374 58.969 98.3054C58.969 98.9654 58.807 99.5354 58.483 100.015C58.171 100.495 57.643 100.819 56.899 100.987V101.167C57.595 101.311 58.177 101.623 58.645 102.103C59.125 102.571 59.365 103.285 59.365 104.245C59.365 105.049 59.191 105.703 58.843 106.207C58.495 106.699 58.015 107.065 57.403 107.305C56.791 107.545 56.083 107.665 55.279 107.665H49.681ZM52.345 105.577H54.163C55.087 105.577 55.741 105.469 56.125 105.253C56.509 105.037 56.701 104.617 56.701 103.993C56.701 103.369 56.509 102.937 56.125 102.697C55.753 102.457 55.099 102.337 54.163 102.337H52.345V105.577ZM52.345 100.249H53.947C54.679 100.249 55.261 100.159 55.693 99.9794C56.125 99.7874 56.341 99.3674 56.341 98.7194C56.341 98.0714 56.125 97.6514 55.693 97.4594C55.261 97.2554 54.679 97.1534 53.947 97.1534H52.345V100.249ZM60.8044 107.665L60.9844 106.225V96.5054L60.8044 95.0654H65.9704C66.8224 95.0654 67.5544 95.2214 68.1664 95.5334C68.7784 95.8454 69.2464 96.2834 69.5704 96.8474C69.8944 97.4114 70.0564 98.0654 70.0564 98.8094C70.0564 99.3254 69.9724 99.8174 69.8044 100.285C69.6484 100.753 69.3964 101.173 69.0484 101.545C68.7004 101.905 68.2564 102.193 67.7164 102.409C67.1764 102.613 66.5344 102.715 65.7904 102.715H63.4324V106.225L63.6124 107.665H60.8044ZM67.8604 107.665L67.0684 106.225L64.1164 101.725H66.1864L67.8964 103.093L70.8484 107.665H67.8604ZM63.4324 100.645H65.4844C66.0844 100.645 66.5584 100.513 66.9064 100.249C67.2664 99.9734 67.4464 99.5294 67.4464 98.9174C67.4464 98.3174 67.2664 97.8854 66.9064 97.6214C66.5464 97.3454 66.0604 97.2074 65.4484 97.2074H63.4324V100.645ZM71.8224 107.665L72.0024 106.225V96.5054L71.8224 95.0654H79.8504V97.3694L78.7704 97.1894H74.4504V100.195H79.2924V102.463L78.2124 102.319H74.4504V105.541H78.7704L79.8504 105.361V107.665H71.8224ZM80.5818 107.665L84.9738 95.0654H88.2498L92.6418 107.665H89.8518L89.4918 106.225L86.8818 98.0174L86.7018 96.9014H86.5218L86.3418 98.0174L83.7318 106.225L83.3718 107.665H80.5818ZM82.9218 104.785V102.625H90.3018V104.785H82.9218ZM93.3661 107.665L93.5461 106.225V96.5054L93.3661 95.0654H97.9021C98.2621 95.0654 98.6581 95.0954 99.0901 95.1554C99.5221 95.2034 99.9601 95.2994 100.404 95.4434C100.86 95.5874 101.292 95.8094 101.7 96.1094C102.108 96.3974 102.474 96.7754 102.798 97.2434C103.122 97.7114 103.38 98.2934 103.572 98.9894C103.764 99.6734 103.86 100.495 103.86 101.455C103.86 102.559 103.734 103.483 103.482 104.227C103.242 104.971 102.912 105.571 102.492 106.027C102.072 106.483 101.598 106.831 101.07 107.071C100.554 107.299 100.02 107.455 99.4681 107.539C98.9281 107.623 98.4061 107.665 97.9021 107.665H93.3661ZM96.0301 105.541H97.2901C97.8661 105.541 98.3941 105.511 98.8741 105.451C99.3541 105.379 99.7741 105.217 100.134 104.965C100.494 104.701 100.77 104.293 100.962 103.741C101.154 103.189 101.25 102.421 101.25 101.437C101.25 100.369 101.136 99.5474 100.908 98.9714C100.692 98.3834 100.392 97.9694 100.008 97.7294C99.6361 97.4774 99.2101 97.3274 98.7301 97.2794C98.2621 97.2194 97.7821 97.1894 97.2901 97.1894H96.0301V105.541Z" fill="#375486"/>
<defs>
<linearGradient id="paint0_linear_19_54" x1="52.5" y1="0" x2="52.5" y2="88.6654" gradientUnits="userSpaceOnUse">
<stop stop-color="#B8B781"/>
<stop offset="1" stop-color="#375486"/>
</linearGradient>
<linearGradient id="paint1_linear_19_54" x1="52.5" y1="0" x2="52.5" y2="88.6654" gradientUnits="userSpaceOnUse">
<stop stop-color="#B8B781"/>
<stop offset="1" stop-color="#375486"/>
</linearGradient>
<linearGradient id="paint2_linear_19_54" x1="52.5" y1="0" x2="52.5" y2="88.6654" gradientUnits="userSpaceOnUse">
<stop stop-color="#B8B781"/>
<stop offset="1" stop-color="#375486"/>
</linearGradient>
<linearGradient id="paint3_linear_19_54" x1="52.5" y1="0" x2="52.5" y2="88.6654" gradientUnits="userSpaceOnUse">
<stop stop-color="#B8B781"/>
<stop offset="1" stop-color="#375486"/>
</linearGradient>
<linearGradient id="paint4_linear_19_54" x1="52.5" y1="0" x2="52.5" y2="88.6654" gradientUnits="userSpaceOnUse">
<stop stop-color="#B8B781"/>
<stop offset="1" stop-color="#375486"/>
</linearGradient>
<linearGradient id="paint5_linear_19_54" x1="52.5" y1="0" x2="52.5" y2="88.6654" gradientUnits="userSpaceOnUse">
<stop stop-color="#B8B781"/>
<stop offset="1" stop-color="#375486"/>
</linearGradient>
<linearGradient id="paint6_linear_19_54" x1="52.5" y1="0" x2="52.5" y2="88.6654" gradientUnits="userSpaceOnUse">
<stop stop-color="#B8B781"/>
<stop offset="1" stop-color="#375486"/>
</linearGradient>
<linearGradient id="paint7_linear_19_54" x1="52.5" y1="0" x2="52.5" y2="88.6654" gradientUnits="userSpaceOnUse">
<stop stop-color="#B8B781"/>
<stop offset="1" stop-color="#375486"/>
</linearGradient>
<linearGradient id="paint8_linear_19_54" x1="52.5" y1="0" x2="52.5" y2="88.6654" gradientUnits="userSpaceOnUse">
<stop stop-color="#B8B781"/>
<stop offset="1" stop-color="#375486"/>
</linearGradient>
</defs>
</svg>
